<svg width="17" height="17" viewBox="0 0 17 17" fill="none" xmlns="http://www.w3.org/2000/svg">
<path d="M15.234 13.1714V15.4649C15.2349 15.6779 15.1912 15.8886 15.1057 16.0837C15.0203 16.2788 14.8949 16.4539 14.7377 16.5979C14.5805 16.7418 14.3949 16.8514 14.1929 16.9196C13.9908 16.9878 13.7766 17.0132 13.5642 16.994C11.2071 16.7384 8.94297 15.9345 6.95371 14.6469C5.10296 13.4731 3.53384 11.907 2.35779 10.0598C1.06326 8.0653 0.257647 5.79451 0.00621728 3.43138C-0.0129243 3.21996 0.0122494 3.00689 0.0801352 2.80571C0.148021 2.60454 0.257132 2.41968 0.400521 2.2629C0.54391 2.10612 0.718435 1.98086 0.912984 1.89509C1.10753 1.80932 1.31785 1.76492 1.53053 1.76472H3.82849C4.20022 1.76107 4.56061 1.89246 4.84247 2.13439C5.12433 2.37633 5.30843 2.71231 5.36046 3.0797C5.45745 3.81369 5.63732 4.53438 5.89665 5.228C5.99971 5.50165 6.02201 5.79904 5.96092 6.08494C5.89983 6.37085 5.7579 6.63328 5.55196 6.84115L4.57915 7.81209C5.66958 9.7261 7.25739 11.3109 9.17507 12.3992L10.1479 11.4283C10.3561 11.2227 10.6191 11.0811 10.9055 11.0201C11.192 10.9591 11.4899 10.9814 11.7641 11.0842C12.4591 11.3431 13.1811 11.5226 13.9165 11.6194C14.2886 11.6718 14.6284 11.8589 14.8713 12.145C15.1143 12.4312 15.2433 12.7964 15.234 13.1714Z" fill="#E2001A"/>
<path d="M9.91064 4.05809C10.6588 4.20378 11.3464 4.56898 11.8854 5.10696C12.4244 5.64494 12.7903 6.33121 12.9363 7.07795M9.91064 1C11.465 1.17235 12.9145 1.8671 14.0211 2.97018C15.1277 4.07325 15.8256 5.51909 16.0002 7.0703" stroke="#E2001A" stroke-width="2" stroke-linecap="round" stroke-linejoin="round"/>
</svg>
