<svg width="28" height="28" viewBox="0 0 28 28" fill="none" xmlns="http://www.w3.org/2000/svg">
<path d="M1.195 0C0.534274 0 0 0.534274 0 1.195C0 1.85573 0.534274 2.39001 1.195 2.39001C1.85573 2.39001 2.39001 1.85573 2.39001 1.195C2.39001 0.534274 1.85573 0 1.195 0Z" fill="#005AAA"/>
<path d="M9.56805 0C8.90732 0 8.37305 0.534274 8.37305 1.195C8.37305 1.85573 8.90732 2.39001 9.56805 2.39001C10.2288 2.39001 10.7631 1.85573 10.7631 1.195C10.7631 0.534274 10.2288 0 9.56805 0Z" fill="#005AAA"/>
<path d="M17.9411 0C17.2804 0 16.7461 0.534274 16.7461 1.195C16.7461 1.85573 17.2804 2.39001 17.9411 2.39001C18.6018 2.39001 19.1361 1.85573 19.1361 1.195C19.1361 0.534274 18.6018 0 17.9411 0Z" fill="#005AAA"/>
<path d="M26.3141 2.39318C26.9749 2.39318 27.5091 1.85891 27.5091 1.19818C27.5091 0.537448 26.9749 0.00317383 26.3141 0.00317383C25.6534 0.00317383 25.1191 0.537448 25.1191 1.19818C25.1191 1.85891 25.6534 2.39318 26.3141 2.39318Z" fill="#005AAA"/>
<path d="M1.195 8.37134C0.534274 8.37134 0 8.90561 0 9.56634C0 10.2271 0.534274 10.7613 1.195 10.7613C1.85573 10.7613 2.39001 10.2271 2.39001 9.56634C2.39317 8.90561 1.85573 8.37134 1.195 8.37134Z" fill="#005AAA"/>
<path d="M9.56805 8.37134C8.90732 8.37134 8.37305 8.90561 8.37305 9.56634C8.37305 10.2271 8.90732 10.7613 9.56805 10.7613C10.2288 10.7613 10.7631 10.2271 10.7631 9.56634C10.7631 8.90561 10.2288 8.37134 9.56805 8.37134Z" fill="#005AAA"/>
<path d="M17.9411 8.37134C17.2804 8.37134 16.7461 8.90561 16.7461 9.56634C16.7461 10.2271 17.2804 10.7613 17.9411 10.7613C18.6018 10.7613 19.1361 10.2271 19.1361 9.56634C19.1361 8.90561 18.6018 8.37134 17.9411 8.37134Z" fill="#005AAA"/>
<path d="M26.3141 8.37134C25.6534 8.37134 25.1191 8.90561 25.1191 9.56634C25.1191 10.2271 25.6534 10.7613 26.3141 10.7613C26.9749 10.7613 27.5091 10.2271 27.5091 9.56634C27.5091 8.90561 26.9749 8.37134 26.3141 8.37134Z" fill="#005AAA"/>
<path d="M1.195 16.7427C0.534274 16.7427 0 17.2769 0 17.9377C0 18.5984 0.534274 19.1327 1.195 19.1327C1.85573 19.1327 2.39001 18.5984 2.39001 17.9377C2.39317 17.2769 1.85573 16.7427 1.195 16.7427Z" fill="#005AAA"/>
<path d="M9.56805 16.7427C8.90732 16.7427 8.37305 17.2769 8.37305 17.9377C8.37305 18.5984 8.90732 19.1327 9.56805 19.1327C10.2288 19.1327 10.7631 18.5984 10.7631 17.9377C10.7631 17.2769 10.2288 16.7427 9.56805 16.7427Z" fill="#005AAA"/>
<path d="M17.9411 16.7427C17.2804 16.7427 16.7461 17.2769 16.7461 17.9377C16.7461 18.5984 17.2804 19.1327 17.9411 19.1327C18.6018 19.1327 19.1361 18.5984 19.1361 17.9377C19.1361 17.2769 18.6018 16.7427 17.9411 16.7427Z" fill="#005AAA"/>
<path d="M26.3141 16.7427C25.6534 16.7427 25.1191 17.2769 25.1191 17.9377C25.1191 18.5984 25.6534 19.1327 26.3141 19.1327C26.9749 19.1327 27.5091 18.5984 27.5091 17.9377C27.5091 17.2769 26.9749 16.7427 26.3141 16.7427Z" fill="#005AAA"/>
<path d="M1.195 25.1108C0.534274 25.1108 0 25.6451 0 26.3058C0 26.9666 0.534274 27.5008 1.195 27.5008C1.85573 27.5008 2.39001 26.9666 2.39001 26.3058C2.39317 25.6483 1.85573 25.1108 1.195 25.1108Z" fill="#005AAA"/>
<path d="M9.56805 25.1108C8.90732 25.1108 8.37305 25.6451 8.37305 26.3058C8.37305 26.9666 8.90732 27.5008 9.56805 27.5008C10.2288 27.5008 10.7631 26.9666 10.7631 26.3058C10.7631 25.6483 10.2288 25.1108 9.56805 25.1108Z" fill="#005AAA"/>
<path d="M17.9411 25.1108C17.2804 25.1108 16.7461 25.6451 16.7461 26.3058C16.7461 26.9666 17.2804 27.5008 17.9411 27.5008C18.6018 27.5008 19.1361 26.9666 19.1361 26.3058C19.1361 25.6483 18.6018 25.1108 17.9411 25.1108Z" fill="#005AAA"/>
<path d="M26.3141 25.1108C25.6534 25.1108 25.1191 25.6451 25.1191 26.3058C25.1191 26.9666 25.6534 27.5008 26.3141 27.5008C26.9749 27.5008 27.5091 26.9666 27.5091 26.3058C27.5091 25.6483 26.9749 25.1108 26.3141 25.1108Z" fill="#005AAA"/>
</svg>
