<svg width="15" height="15" viewBox="0 0 15 15" fill="none" xmlns="http://www.w3.org/2000/svg">
<g opacity="0.1" clip-path="url(#clip0_1_2537)">
<path d="M14.5894 5.96153L13.4609 5.71621C13.3628 5.41577 13.2412 5.12273 13.0977 4.84044L13.7224 3.86867C13.834 3.69504 13.8095 3.46708 13.6636 3.32123L11.9056 1.56319C11.7598 1.41734 11.5318 1.39281 11.3582 1.50438L10.3864 2.12911C10.1041 1.98562 9.81106 1.86408 9.51062 1.76595L9.2653 0.637461C9.2215 0.435825 9.04294 0.291992 8.8366 0.291992H6.35044C6.14409 0.291992 5.96554 0.435825 5.92174 0.637461L5.67641 1.76595C5.37598 1.86408 5.08293 1.98562 4.80064 2.12911L3.82887 1.50438C3.65524 1.39281 3.42728 1.41734 3.28143 1.56319L1.5234 3.32123C1.37755 3.46708 1.35301 3.69504 1.46459 3.86867L2.08932 4.84044C1.94582 5.12273 1.82428 5.41577 1.72615 5.71621L0.597666 5.96153C0.396031 6.00544 0.252197 6.18389 0.252197 6.39023V8.87639C0.252197 9.08273 0.396031 9.26118 0.597666 9.30509L1.72615 9.55042C1.82428 9.85085 1.94582 10.1439 2.08932 10.4262L1.46459 11.398C1.35301 11.5716 1.37755 11.7995 1.5234 11.9454L3.28143 13.7034C3.42728 13.8493 3.65524 13.8738 3.82887 13.7622L4.80064 13.1375C5.08293 13.281 5.37598 13.4025 5.67641 13.5007L5.92174 14.6292C5.96554 14.8308 6.14409 14.9746 6.35044 14.9746H8.8366C9.04294 14.9746 9.2215 14.8308 9.2653 14.6292L9.51062 13.5007C9.81106 13.4025 10.1041 13.281 10.3864 13.1375L11.3582 13.7622C11.5318 13.8738 11.7598 13.8494 11.9056 13.7034L13.6636 11.9454C13.8095 11.7995 13.834 11.5716 13.7224 11.398L13.0977 10.4262C13.2412 10.1439 13.3628 9.85085 13.4609 9.55042L14.5894 9.30509C14.791 9.26118 14.9348 9.08273 14.9348 8.87639V6.39023C14.9348 6.18389 14.791 6.00544 14.5894 5.96153ZM10.2259 7.63331C10.2259 9.08475 9.04496 10.2657 7.59352 10.2657C6.14208 10.2657 4.96117 9.08475 4.96117 7.63331C4.96117 6.18187 6.14208 5.00096 7.59352 5.00096C9.04496 5.00096 10.2259 6.18187 10.2259 7.63331Z" fill="black"/>
</g>
<defs>
<clipPath id="clip0_1_2537">
<rect width="14.6826" height="14.6826" fill="white" transform="translate(0.252197 0.291992)"/>
</clipPath>
</defs>
</svg>
