<svg width="9" height="10" viewBox="0 0 9 10" fill="none" xmlns="http://www.w3.org/2000/svg">
<g opacity="0.1" clip-path="url(#clip0_1_2533)">
<path d="M0.411476 8.23207H8.69476C8.80256 8.23207 8.88993 8.1447 8.88993 8.0369V7.86123C8.89005 7.8583 8.89082 7.85558 8.89082 7.85261C8.89082 7.82075 8.88317 7.79068 8.86962 7.76413L8.02261 5.63195V1.66587C8.02261 1.55807 7.93524 1.4707 7.82744 1.4707H1.27883C1.17103 1.4707 1.08367 1.55807 1.08367 1.66587V5.63195L0.23007 7.78057C0.226247 7.79017 0.223572 7.79998 0.221321 7.80988C0.220768 7.81238 0.220344 7.81489 0.219876 7.81744C0.217753 7.82882 0.216436 7.84033 0.216394 7.85184C0.216394 7.8521 0.216309 7.85235 0.216309 7.85261V8.0369C0.216309 8.1447 0.303677 8.23207 0.411476 8.23207ZM3.71373 7.60222L3.89229 7.05006H5.21395L5.39251 7.60222H3.71373ZM1.65744 1.96862H7.44883V5.36653H1.65744V1.96862Z" fill="black"/>
</g>
<defs>
<clipPath id="clip0_1_2533">
<rect width="8.67451" height="8.67451" fill="white" transform="translate(0.216309 0.51416)"/>
</clipPath>
</defs>
</svg>
