<svg width="12" height="11" viewBox="0 0 12 11" fill="none" xmlns="http://www.w3.org/2000/svg">
<g opacity="0.1" clip-path="url(#clip0_1_2545)">
<path d="M10.7318 0.758301H1.49216C1.15405 0.758301 0.878906 1.03345 0.878906 1.37155V7.4632C0.878906 7.80131 1.15405 8.07645 1.49216 8.07645H10.7318C11.0699 8.07645 11.3451 7.80131 11.3451 7.4632V1.37155C11.3451 1.03345 11.0699 0.758301 10.7318 0.758301Z" fill="black"/>
<path d="M9.38266 9.58913H7.72688V8.6897H4.49708V9.58913H2.84129C2.67204 9.58913 2.53467 9.7265 2.53467 9.89576C2.53467 10.065 2.67204 10.2024 2.84129 10.2024H9.38266C9.55192 10.2024 9.68929 10.065 9.68929 9.89576C9.68929 9.7265 9.55192 9.58913 9.38266 9.58913Z" fill="black"/>
</g>
<defs>
<clipPath id="clip0_1_2545">
<rect width="10.4662" height="10.4662" fill="white" transform="translate(0.878906 0.247314)"/>
</clipPath>
</defs>
</svg>
