<svg width="12" height="13" viewBox="0 0 12 13" fill="none" xmlns="http://www.w3.org/2000/svg">
<g opacity="0.1" clip-path="url(#clip0_1_2541)">
<path d="M3.63175 12.8287H8.30598C8.87959 12.8287 9.34471 12.3636 9.34471 11.7899V2.02604C9.34471 1.45232 8.87959 0.987305 8.30598 0.987305L3.63175 0.987305C3.05814 0.987305 2.59302 1.45232 2.59302 2.02604L2.59302 11.7899C2.59302 12.3636 3.05814 12.8287 3.63175 12.8287ZM6.41976 12.1667H5.51791C5.40503 12.1667 5.31369 12.0753 5.31369 11.9625C5.31369 11.8497 5.40503 11.7583 5.51791 11.7583H6.41976C6.53265 11.7583 6.62399 11.8497 6.62399 11.9625C6.62399 12.0753 6.53265 12.1667 6.41976 12.1667ZM4.9541 1.63643L6.98358 1.63643C7.03642 1.63643 7.07931 1.67927 7.07931 1.73216C7.07931 1.78505 7.03642 1.82789 6.98358 1.82789L4.9541 1.82789C4.90126 1.82789 4.85837 1.78505 4.85837 1.73216C4.85837 1.67927 4.90126 1.63643 4.9541 1.63643ZM3.09694 2.47038L8.84074 2.47038V11.3455H3.09694L3.09694 2.47038Z" fill="black"/>
</g>
<defs>
<clipPath id="clip0_1_2541">
<rect width="11.8414" height="11.8414" fill="white" transform="translate(0.0480957 0.987305)"/>
</clipPath>
</defs>
</svg>
