<svg width="44" height="7" viewBox="0 0 44 7" fill="none" xmlns="http://www.w3.org/2000/svg">
<path d="M5.06586 2.90917L1.10712 0.389544C0.790922 0.187215 0.376709 0.414831 0.376709 0.791036V6.18752C0.376709 6.57637 0.81622 6.79767 1.12925 6.57005L5.088 3.69319C5.36309 3.49402 5.35044 3.08937 5.06586 2.90917Z" fill="#DCE0E2"/>
<path d="M14.6569 2.90917L10.6982 0.389544C10.382 0.187215 9.96777 0.414831 9.96777 0.791036V6.18752C9.96777 6.57637 10.4073 6.79767 10.7203 6.57005L14.6791 3.69319C14.951 3.49402 14.9383 3.08937 14.6569 2.90917Z" fill="#DCE0E2"/>
<path d="M24.246 2.90917L20.2873 0.389544C19.9711 0.187215 19.5569 0.414831 19.5569 0.791036V6.18752C19.5569 6.57637 19.9964 6.79767 20.3094 6.57005L24.2682 3.69319C24.5401 3.49402 24.5275 3.08937 24.246 2.90917Z" fill="#DCE0E2"/>
<path d="M33.8364 2.90917L29.8776 0.389544C29.5614 0.187215 29.1472 0.414831 29.1472 0.791036V6.18752C29.1472 6.57637 29.5867 6.79767 29.8997 6.57005L33.8585 3.69319C34.1304 3.49402 34.1178 3.08937 33.8364 2.90917Z" fill="#DCE0E2"/>
<path d="M43.4269 2.90917L39.4682 0.389544C39.152 0.187215 38.7378 0.414831 38.7378 0.791036V6.18752C38.7378 6.57637 39.1773 6.79767 39.4903 6.57005L43.4491 3.69319C43.721 3.49402 43.7084 3.08937 43.4269 2.90917Z" fill="#DCE0E2"/>
</svg>
