<svg width="38" height="31" viewBox="0 0 38 31" fill="none" xmlns="http://www.w3.org/2000/svg">
<path d="M48.0377 29.6787C48.0024 29.4386 47.8011 29.255 47.5575 29.2515C46.6818 29.2374 44.5527 28.955 42.4059 26.8086C39.3694 23.7726 37.9394 23.2395 36.061 23.2395C33.9955 23.2395 31.7428 24.3551 29.7161 26.3814C27.6646 28.4325 26.0828 29.2303 24.0738 29.2303C22.0188 29.2303 19.925 27.444 18.8587 26.3814C17.7712 25.2941 15.0454 23.2395 12.5137 23.2395C10.3317 23.2395 8.22021 24.8316 6.52186 26.1096L6.22175 26.3355C5.89691 26.5791 5.58619 26.8368 5.28606 27.0875C4.04673 28.1218 2.86743 29.1032 0.565313 29.2197C0.30403 29.2339 0.0957031 29.4527 0.0957031 29.714C0.0957031 29.9999 0.335819 30.2258 0.621819 30.2117C3.25584 30.074 4.66816 28.8949 5.92161 27.85C6.22527 27.5958 6.51128 27.3558 6.81493 27.1298L7.11858 26.9004C8.69687 25.7107 10.66 24.2315 12.5102 24.2315C14.3215 24.2315 16.7684 25.7001 18.1525 27.0804C19.3247 28.2524 21.6551 30.2223 24.0702 30.2223C26.3441 30.2223 28.1837 29.3115 30.4152 27.0804C32.2547 25.2411 34.2567 24.2315 36.0575 24.2315C37.4839 24.2315 38.6491 24.461 41.6998 27.5111C44.0831 29.8975 46.477 30.2329 47.5433 30.247C47.847 30.2541 48.0836 29.9823 48.0377 29.6787Z" fill="#FFD66B"/>
<path d="M48.0377 18.0571C48.0024 17.817 47.8011 17.6335 47.5575 17.6299C46.6818 17.6158 44.5527 17.3334 42.4059 15.187C39.3694 12.151 37.9394 11.6179 36.061 11.6179C33.9955 11.6179 31.7428 12.7335 29.7161 14.7598C27.6646 16.8109 26.0828 17.6087 24.0738 17.6087C22.0188 17.6087 19.925 15.8224 18.8587 14.7598C17.7712 13.6725 15.0454 11.6179 12.5137 11.6179C10.3317 11.6179 8.22021 13.2101 6.52186 14.488L6.22175 14.7139C5.89691 14.9575 5.58619 15.2152 5.28607 15.4659C4.04673 16.5002 2.86743 17.4816 0.565313 17.5981C0.30403 17.6123 0.0957031 17.8311 0.0957031 18.0924C0.0957031 18.3783 0.335819 18.6043 0.621819 18.5901C3.25584 18.4525 4.66816 17.2734 5.92161 16.2284C6.22527 15.9742 6.51128 15.7342 6.81493 15.5082L7.11858 15.2788C8.69687 14.0891 10.66 12.6099 12.5102 12.6099C14.3215 12.6099 16.7684 14.0785 18.1525 15.4588C19.3247 16.6309 21.6551 18.6007 24.0702 18.6007C26.3441 18.6007 28.1837 17.6899 30.4152 15.4588C32.2547 13.6196 34.2567 12.6099 36.0575 12.6099C37.4839 12.6099 38.6491 12.8394 41.6998 15.8895C44.0831 18.2724 46.477 18.6078 47.5433 18.6254C47.847 18.6325 48.0836 18.3607 48.0377 18.0571Z" fill="#FFD66B"/>
<path d="M0.621819 6.97223C3.25584 6.83455 4.66816 5.65545 5.92161 4.61049C6.22527 4.35632 6.51128 4.11626 6.81493 3.89032L7.11858 3.66086C8.69687 2.47117 10.66 0.991997 12.5102 0.991997C14.3215 0.991997 16.7684 2.46058 18.1525 3.8409C19.3247 5.01294 21.6551 6.98282 24.0702 6.98282C26.3441 6.98282 28.1837 6.07201 30.4152 3.8409C32.2547 2.00165 34.2567 0.991997 36.0575 0.991997C37.4839 0.991997 38.6491 1.22146 41.6998 4.27159C44.0831 6.6545 46.477 6.98987 47.5433 7.00753C47.847 7.01106 48.0836 6.73923 48.0377 6.43916C48.0024 6.1991 47.8011 6.01553 47.5575 6.012C46.6818 5.99788 44.5527 5.71546 42.4059 3.56907C39.3694 0.533066 37.9394 0 36.061 0C33.9955 0 31.7428 1.11555 29.7161 3.14191C27.6646 5.19298 26.0828 5.99082 24.0738 5.99082C22.0188 5.99082 19.925 4.20451 18.8587 3.14191C17.7712 2.0546 15.0454 0 12.5137 0C10.3317 0 8.22021 1.59214 6.52186 2.87009L6.22175 3.09602C5.89691 3.33961 5.58619 3.59731 5.28606 3.84796C4.04673 4.88232 2.86743 5.86373 0.565313 5.98023C0.30403 5.99435 0.0957031 6.21322 0.0957031 6.47446C0.0957031 6.76041 0.33935 6.98635 0.621819 6.97223Z" fill="#FFD66B"/>
</svg>
